<svg width="20" height="20" viewBox="0 0 20 20" fill="none" xmlns="http://www.w3.org/2000/svg">
<path d="M19.5328 10.1871C19.5328 9.36773 19.4664 8.7698 19.3225 8.14972H9.96582V11.848H15.458C15.3473 12.7671 14.7493 14.1512 13.4206 15.0813L13.4019 15.2051L16.3603 17.497L16.5653 17.5174C18.4477 15.779 19.5328 13.2211 19.5328 10.1871Z" fill="#4285F4"/>
<path d="M9.96566 19.9313C12.6563 19.9313 14.9152 19.0455 16.5651 17.5174L13.4204 15.0813C12.5789 15.6682 11.4494 16.0779 9.96566 16.0779C7.33032 16.0779 5.0936 14.3395 4.29627 11.9367L4.1794 11.9466L1.10322 14.3273L1.06299 14.4391C2.70177 17.6945 6.06795 19.9313 9.96566 19.9313Z" fill="#34A853"/>
<path d="M4.29626 11.9367C4.08588 11.3166 3.96412 10.6522 3.96412 9.96568C3.96412 9.27911 4.08588 8.61476 4.28519 7.99469L4.27962 7.86263L1.16489 5.4437L1.06298 5.49217C0.387557 6.84308 0 8.36011 0 9.96568C0 11.5713 0.387557 13.0882 1.06298 14.4391L4.29626 11.9367Z" fill="#FBBC05"/>
<path d="M9.96566 3.85339C11.837 3.85339 13.0992 4.66171 13.819 5.33721L16.6315 2.5911C14.9042 0.985527 12.6563 3.05176e-05 9.96566 3.05176e-05C6.06795 3.05176e-05 2.70177 2.23675 1.06299 5.49217L4.2852 7.99469C5.0936 5.59186 7.33032 3.85339 9.96566 3.85339Z" fill="#EB4335"/>
</svg>
